<svg width="480" height="30" viewBox="0 0 480 30" version="1.1" xmlns="http://www.w3.org/2000/svg" xmlns:xlink="http://www.w3.org/1999/xlink">
<g id="Canvas" fill="none">
<g id="sprite" clip-path="url(#clip0)">
<rect width="480" height="30" fill="white"/>
<g id="1">
<g id="Subtract">
<path fill-rule="evenodd" clip-rule="evenodd" d="M 13.7207 18C 14.0005 18 14.2817 17.9097 14.5205 17.7286C 14.997 17.3667 15.1972 16.7261 15.0146 16.1418L 13.5161 11.3322L 17.4394 8.3595C 17.9155 7.99829 18.1157 7.35693 17.9331 6.77246C 17.75 6.18726 17.2285 5.79102 16.6391 5.79102L 11.791 5.79102L 10.2929 0.981323C 10.1098 0.396118 9.58835 0 8.99948 0C 8.41013 0 7.88669 0.396118 7.70554 0.981323L 6.20749 5.79028L 1.36081 5.79028C 0.771456 5.79028 0.248018 6.1864 0.0668657 6.77173C -0.115751 7.35608 0.0844438 7.99658 0.560518 8.35852L 4.48239 11.3322L 2.98386 16.1418C 2.80124 16.7261 3.00144 17.3677 3.478 17.7286C 3.71677 17.9097 3.99802 18 4.2778 18C 4.55905 18 4.8403 17.9097 5.07761 17.7286L 8.99948 14.7552L 12.9209 17.7286C 13.1582 17.9097 13.4394 18 13.7207 18ZM 8.99704 3.56384L 10.3174 7.79431L 14.872 7.79431L 11.1924 10.5834L 12.54 14.9271L 8.99704 12.2513L 5.46579 14.9271L 6.80564 10.5834L 3.12204 7.79431L 7.66892 7.79431L 8.99704 3.56384Z" transform="translate(6 5.01428)" fill="#4A90E2"/>
</g>
</g>
<g id="2">
<g id="Group">
<g id="Vector">
<path fill-rule="evenodd" clip-rule="evenodd" d="M 14.5207 17.7286C 14.2817 17.9097 14.0005 18 13.7208 18C 13.4397 18 13.1583 17.9097 12.9209 17.7286L 8.99928 14.7553L 5.07764 17.7286C 4.84023 17.9097 4.55889 18 4.27773 18C 3.99801 18 3.71685 17.9097 3.47781 17.7286C 3.00136 17.3677 2.8012 16.7261 2.98408 16.1418L 4.48239 11.3321L 0.560752 8.35854C 0.0842954 7.99664 -0.115863 7.35603 0.0670156 6.77176C 0.248274 6.18637 0.771711 5.79028 1.36067 5.79028L 6.20732 5.79028L 7.70563 0.981292C 7.88689 0.396085 8.41032 0 8.99928 0C 9.58824 0 10.1101 0.396085 10.2929 0.981292L 11.7912 5.79103L 16.6392 5.79103C 17.2283 5.79103 17.7501 6.18731 17.933 6.77251C 18.1159 7.35697 17.9157 7.99833 17.4392 8.35948L 13.5162 11.3321L 15.0145 16.1418C 15.1972 16.7261 14.9972 17.3667 14.5207 17.7286Z" transform="translate(36 5)" fill="#FCDAA8"/>
</g>
<g id="Subtract_2">
<path fill-rule="evenodd" clip-rule="evenodd" d="M 13.7207 18C 14.0005 18 14.2817 17.9097 14.5205 17.7286C 14.997 17.3667 15.1972 16.7261 15.0146 16.1418L 13.5161 11.3322L 17.4394 8.3595C 17.9155 7.99829 18.1157 7.35693 17.9331 6.77246C 17.75 6.18726 17.2285 5.79102 16.6391 5.79102L 11.791 5.79102L 10.2929 0.981323C 10.1098 0.396118 9.58835 0 8.99948 0C 8.41013 0 7.88669 0.396118 7.70554 0.981323L 6.20749 5.79028L 1.36081 5.79028C 0.771456 5.79028 0.248018 6.1864 0.0668657 6.77173C -0.115751 7.35608 0.0844438 7.99658 0.560518 8.35852L 4.48239 11.3322L 2.98386 16.1418C 2.80124 16.7261 3.00144 17.3677 3.478 17.7286C 3.71677 17.9097 3.99802 18 4.2778 18C 4.55905 18 4.8403 17.9097 5.07761 17.7286L 8.99948 14.7552L 12.9209 17.7286C 13.1582 17.9097 13.4394 18 13.7207 18ZM 8.99704 3.56384L 10.3174 7.79431L 14.872 7.79431L 11.1924 10.5834L 12.54 14.9271L 8.99704 12.2513L 5.46579 14.9271L 6.80564 10.5834L 3.12204 7.79431L 7.66892 7.79431L 8.99704 3.56384Z" transform="translate(36.0005 5.00476)" fill="#F5A623"/>
</g>
</g>
</g>
<g id="3">
<g id="Group 2">
<g id="Vector_2">
<path fill-rule="evenodd" clip-rule="evenodd" d="M 14.5207 17.7286C 14.2817 17.9097 14.0005 18 13.7208 18C 13.4397 18 13.1583 17.9097 12.9209 17.7286L 8.99928 14.7553L 5.07764 17.7286C 4.84023 17.9097 4.55889 18 4.27773 18C 3.99801 18 3.71685 17.9097 3.47781 17.7286C 3.00136 17.3677 2.8012 16.7261 2.98408 16.1418L 4.48239 11.3321L 0.560752 8.35854C 0.0842954 7.99664 -0.115863 7.35603 0.0670156 6.77176C 0.248274 6.18637 0.771711 5.79028 1.36067 5.79028L 6.20732 5.79028L 7.70563 0.981292C 7.88689 0.396085 8.41032 0 8.99928 0C 9.58824 0 10.1101 0.396085 10.2929 0.981292L 11.7912 5.79103L 16.6392 5.79103C 17.2283 5.79103 17.7501 6.18731 17.933 6.77251C 18.1159 7.35697 17.9157 7.99833 17.4392 8.35948L 13.5162 11.3321L 15.0145 16.1418C 15.1972 16.7261 14.9972 17.3667 14.5207 17.7286Z" transform="translate(66 5)" fill="#FAC379"/>
</g>
<g id="Subtract_3">
<path fill-rule="evenodd" clip-rule="evenodd" d="M 13.7207 18C 14.0005 18 14.2817 17.9097 14.5205 17.7286C 14.997 17.3667 15.1972 16.7261 15.0146 16.1418L 13.5161 11.3322L 17.4394 8.3595C 17.9155 7.99829 18.1157 7.35693 17.9331 6.77246C 17.75 6.18726 17.2285 5.79102 16.6391 5.79102L 11.791 5.79102L 10.2929 0.981323C 10.1098 0.396118 9.58835 0 8.99948 0C 8.41013 0 7.88669 0.396118 7.70554 0.981323L 6.20749 5.79028L 1.36081 5.79028C 0.771456 5.79028 0.248018 6.1864 0.0668657 6.77173C -0.115751 7.35608 0.0844438 7.99658 0.560518 8.35852L 4.48239 11.3322L 2.98386 16.1418C 2.80124 16.7261 3.00144 17.3677 3.478 17.7286C 3.71677 17.9097 3.99802 18 4.2778 18C 4.55905 18 4.8403 17.9097 5.07761 17.7286L 8.99948 14.7552L 12.9209 17.7286C 13.1582 17.9097 13.4394 18 13.7207 18ZM 8.99704 3.56384L 10.3174 7.79431L 14.872 7.79431L 11.1924 10.5834L 12.54 14.9271L 8.99704 12.2513L 5.46579 14.9271L 6.80564 10.5834L 3.12204 7.79431L 7.66892 7.79431L 8.99704 3.56384Z" transform="translate(66.0005 5.00476)" fill="#F5A623"/>
</g>
</g>
</g>
<g id="4">
<g id="Group 3">
<g id="Vector_3">
<path fill-rule="evenodd" clip-rule="evenodd" d="M 15.4345 18.8442C 15.1804 19.0367 14.8816 19.1327 14.5842 19.1327C 14.2854 19.1327 13.9863 19.0367 13.734 18.8442L 9.56557 15.6838L 5.39716 18.8442C 5.1448 19.0367 4.84576 19.1327 4.54691 19.1327C 4.24959 19.1327 3.95074 19.0367 3.69666 18.8442C 3.19022 18.4605 2.97747 17.7786 3.17185 17.1576L 4.76445 12.0452L 0.596039 8.88452C 0.0895998 8.49984 -0.123154 7.81892 0.0712326 7.19789C 0.263897 6.57565 0.820272 6.15464 1.44629 6.15464L 6.59792 6.15464L 8.19052 1.04304C 8.38318 0.42101 8.93956 0 9.56557 0C 10.1916 0 10.7462 0.42101 10.9406 1.04304L 12.5332 6.15544L 17.6862 6.15544C 18.3124 6.15544 18.8671 6.57665 19.0614 7.19868C 19.2558 7.81992 19.0431 8.50164 18.5366 8.88552L 14.3667 12.0452L 15.9593 17.1576C 16.1535 17.7786 15.9409 18.4595 15.4345 18.8442Z" transform="translate(96 4.43384)" fill="#F7B255"/>
</g>
<g id="Subtract_4">
<path fill-rule="evenodd" clip-rule="evenodd" d="M 14.5844 19.1327C 14.8812 19.1327 15.1801 19.0366 15.4345 18.8442C 15.9408 18.4596 16.1532 17.7786 15.9594 17.1576L 14.3666 12.0452L 18.5365 8.8855C 19.0429 8.50159 19.2558 7.81995 19.0614 7.19873C 18.8671 6.57666 18.3124 6.1554 17.6859 6.1554L 12.5331 6.1554L 10.9403 1.04309C 10.746 0.421021 10.1913 0 9.56532 0C 8.93935 0 8.3832 0.421021 8.19032 1.04309L 6.59804 6.15466L 1.44618 6.15466C 0.820207 6.15466 0.263567 6.57568 0.0711839 7.19788C -0.123152 7.81897 0.0897386 8.49988 0.596086 8.88452L 4.76454 12.0452L 3.17177 17.1576C 2.97743 17.7786 3.19032 18.4606 3.69667 18.8442C 3.95058 19.0366 4.24941 19.1327 4.54677 19.1327C 4.8456 19.1327 5.14491 19.0366 5.39687 18.8442L 9.56532 15.6837L 13.7338 18.8442C 13.9862 19.0366 14.2851 19.1327 14.5844 19.1327ZM 9.56288 3.78821L 10.9662 8.28491L 15.8075 8.28491L 11.8964 11.2495L 13.329 15.8666L 9.56288 13.0223L 5.80947 15.8666L 7.23378 11.2495L 3.31825 8.28491L 8.15126 8.28491L 9.56288 3.78821Z" transform="translate(96.0005 4.43359)" fill="#F5A623"/>
</g>
</g>
</g>
<g id="5">
<g id="Icons / 24px / Star" clip-path="url(#clip1)">
<g id="Vector_4">
<path fill-rule="evenodd" clip-rule="evenodd" d="M 18.1509 22.1608C 17.8521 22.3871 17.5007 22.5 17.151 22.5C 16.7996 22.5 16.4479 22.3871 16.1511 22.1608L 11.2491 18.4441L 6.34706 22.1608C 6.05028 22.3871 5.69861 22.5 5.34716 22.5C 4.99751 22.5 4.64607 22.3871 4.34727 22.1608C 3.7517 21.7096 3.5015 20.9076 3.7301 20.1773L 5.60299 14.1651L 0.700941 10.4482C 0.105369 9.9958 -0.144829 9.19504 0.0837694 8.4647C 0.310343 7.73296 0.964639 7.23785 1.70083 7.23785L 7.75915 7.23785L 9.63204 1.22662C 9.85861 0.495107 10.5129 0 11.2491 0C 11.9853 0 12.6376 0.495107 12.8662 1.22662L 14.7391 7.23879L 20.7989 7.23879C 21.5354 7.23879 22.1876 7.73413 22.4162 8.46564C 22.6448 9.19621 22.3946 9.99791 21.7991 10.4494L 16.8952 14.1651L 18.7681 20.1773C 18.9965 20.9076 18.7465 21.7084 18.1509 22.1608Z" transform="translate(123.75 2.75)" fill="#F7A83D"/>
</g>
</g>
</g>
<g id="6">
<g id="Icons / 24px / Star_2" clip-path="url(#clip2)">
<g id="Vector_5">
<path fill-rule="evenodd" clip-rule="evenodd" d="M 18.1509 22.1608C 17.8521 22.3871 17.5007 22.5 17.151 22.5C 16.7996 22.5 16.4479 22.3871 16.1511 22.1608L 11.2491 18.4441L 6.34706 22.1608C 6.05028 22.3871 5.69861 22.5 5.34716 22.5C 4.99751 22.5 4.64607 22.3871 4.34727 22.1608C 3.7517 21.7096 3.5015 20.9076 3.7301 20.1773L 5.60299 14.1651L 0.700941 10.4482C 0.105369 9.9958 -0.144829 9.19504 0.0837694 8.4647C 0.310343 7.73296 0.964639 7.23785 1.70083 7.23785L 7.75915 7.23785L 9.63204 1.22662C 9.85861 0.495107 10.5129 0 11.2491 0C 11.9853 0 12.6376 0.495107 12.8662 1.22662L 14.7391 7.23879L 20.7989 7.23879C 21.5354 7.23879 22.1876 7.73413 22.4162 8.46564C 22.6448 9.19621 22.3946 9.99791 21.7991 10.4494L 16.8952 14.1651L 18.7681 20.1773C 18.9965 20.9076 18.7465 21.7084 18.1509 22.1608Z" transform="translate(153.75 2.75)" fill="#F5A623"/>
</g>
</g>
</g>
<g id="7">
<g id="Icons / 24px / Star_3" clip-path="url(#clip3)">
<g id="Vector_6">
<path fill-rule="evenodd" clip-rule="evenodd" d="M 16.9409 20.6834C 16.662 20.8946 16.334 21 16.0076 21C 15.6796 21 15.3514 20.8946 15.0744 20.6834L 10.4992 17.2145L 5.92392 20.6834C 5.64693 20.8946 5.3187 21 4.99068 21C 4.66435 21 4.33633 20.8946 4.05745 20.6834C 3.50158 20.2623 3.26806 19.5138 3.48142 18.8321L 5.22945 13.2208L 0.654211 9.75164C 0.0983447 9.32941 -0.135174 8.58203 0.0781848 7.90039C 0.289653 7.21743 0.90033 6.75533 1.58745 6.75533L 7.24187 6.75533L 8.9899 1.14484C 9.20137 0.462099 9.81204 0 10.4992 0C 11.1863 0 11.7951 0.462099 12.0084 1.14484L 13.7565 6.75621L 19.4123 6.75621C 20.0997 6.75621 20.7085 7.21852 20.9218 7.90127C 21.1352 8.58313 20.9017 9.33139 20.3458 9.75273L 15.7689 13.2208L 17.5169 18.8321C 17.73 19.5138 17.4967 20.2612 16.9409 20.6834Z" transform="translate(184.5 3.5)" fill="#F5A623"/>
</g>
</g>
<g id="Group 2.2">
<g id="Rectangle 2.7">
<rect width="2" height="2" rx="1" transform="matrix(0.829038 0.559193 -0.559193 0.829038 199.191 6.93005)" fill="#F5A623" fill-opacity="0.5"/>
</g>
<g id="Rectangle 2.10">
<rect width="2" height="2" rx="1" transform="matrix(-0.438371 0.898794 -0.898794 -0.438371 203.62 17.02)" fill="#F5A623" fill-opacity="0.5"/>
</g>
<g id="Rectangle 2.9">
<rect width="2" height="2" rx="1" transform="translate(195.992 24) scale(-1)" fill="#F5A623" fill-opacity="0.5"/>
</g>
<g id="Rectangle 2.8">
<rect width="2" height="2" rx="1" transform="matrix(-0.438371 -0.898794 0.898794 -0.438371 187.271 18.65)" fill="#F5A623" fill-opacity="0.5"/>
</g>
<g id="Rectangle 2.6">
<rect width="2" height="2" rx="1" transform="matrix(0.829038 -0.559193 0.559193 0.829038 189.241 8.13)" fill="#F5A623" fill-opacity="0.5"/>
</g>
</g>
</g>
<g id="8">
<g id="Icons / 24px / Star_4" clip-path="url(#clip4)">
<g id="Vector_7">
<path fill-rule="evenodd" clip-rule="evenodd" d="M 15.7308 19.206C 15.4718 19.4021 15.1673 19.5 14.8642 19.5C 14.5596 19.5 14.2549 19.4021 13.9977 19.206L 9.74922 15.9849L 5.50078 19.206C 5.24358 19.4021 4.93879 19.5 4.63421 19.5C 4.33118 19.5 4.02659 19.4021 3.76763 19.206C 3.25147 18.815 3.03463 18.1199 3.23275 17.487L 4.85592 12.2764L 0.607482 9.05509C 0.09132 8.66303 -0.125519 7.96903 0.0726002 7.33607C 0.268964 6.7019 0.83602 6.2728 1.47406 6.2728L 6.72459 6.2728L 8.34776 1.06307C 8.54413 0.429092 9.11118 0 9.74922 0C 10.3873 0 10.9526 0.429092 11.1507 1.06307L 12.7738 6.27362L 18.0257 6.27362C 18.664 6.27362 19.2293 6.70291 19.4274 7.33689C 19.6255 7.97005 19.4087 8.66486 18.8925 9.05611L 14.6425 12.2764L 16.2657 17.487C 16.4636 18.1199 16.247 18.8139 15.7308 19.206Z" transform="translate(215.25 4.25)" fill="#F5A623"/>
</g>
</g>
<g id="Group 2.9">
<g id="Rectangle 2.7_2">
<rect width="2" height="4" rx="1" transform="matrix(0.829038 0.559193 -0.559193 0.829038 230.28 5.26953)" fill="#F5A623" fill-opacity="0.5"/>
</g>
<g id="Rectangle 2.10_2">
<rect width="2" height="4" rx="1" transform="matrix(-0.438371 0.898794 -0.898794 -0.438371 235.397 17.8962)" fill="#F5A623" fill-opacity="0.5"/>
</g>
<g id="Rectangle 2.9_2">
<rect width="2" height="4" rx="1" transform="translate(225.97 26.0001) scale(-1)" fill="#F5A623" fill-opacity="0.5"/>
</g>
<g id="Rectangle 2.8_2">
<rect width="2" height="4" rx="1" transform="matrix(-0.438371 -0.898794 0.898794 -0.438371 215.47 19.5251)" fill="#F5A623" fill-opacity="0.5"/>
</g>
<g id="Rectangle 2.6_2">
<rect width="2" height="4" rx="1" transform="matrix(0.829038 -0.559193 0.559193 0.829038 218.107 6.47998)" fill="#F5A623" fill-opacity="0.5"/>
</g>
</g>
</g>
<g id="9">
<g id="Icons / 24px / Star_5" clip-path="url(#clip5)">
<g id="Vector_8">
<path fill-rule="evenodd" clip-rule="evenodd" d="M 14.5207 17.7286C 14.2817 17.9097 14.0005 18 13.7208 18C 13.4397 18 13.1583 17.9097 12.9209 17.7286L 8.99928 14.7553L 5.07764 17.7286C 4.84023 17.9097 4.55889 18 4.27773 18C 3.99801 18 3.71685 17.9097 3.47781 17.7286C 3.00136 17.3677 2.8012 16.7261 2.98408 16.1418L 4.48239 11.3321L 0.560752 8.35854C 0.0842954 7.99664 -0.115863 7.35603 0.0670156 6.77176C 0.248274 6.18637 0.771711 5.79028 1.36067 5.79028L 6.20732 5.79028L 7.70563 0.981292C 7.88689 0.396085 8.41032 0 8.99928 0C 9.58824 0 10.1101 0.396085 10.2929 0.981292L 11.7912 5.79103L 16.6392 5.79103C 17.2283 5.79103 17.7501 6.18731 17.933 6.77251C 18.1159 7.35697 17.9157 7.99833 17.4392 8.35948L 13.5162 11.3321L 15.0145 16.1418C 15.1972 16.7261 14.9972 17.3667 14.5207 17.7286Z" transform="translate(246.193 5)" fill="#F5A623"/>
</g>
</g>
<g id="Group 2_2">
<g id="Rectangle 2.7_3">
<rect width="2" height="6" rx="1" transform="matrix(0.829038 0.559193 -0.559193 0.829038 261.631 3.61206)" fill="#F5A623" fill-opacity="0.5"/>
</g>
<g id="Rectangle 2.8_3">
<rect width="2" height="6" rx="1" transform="matrix(-0.438371 0.898794 -0.898794 -0.438371 267.421 18.7667)" fill="#F5A623" fill-opacity="0.5"/>
</g>
<g id="Rectangle 2.9_3">
<rect width="2" height="6" rx="1" transform="translate(256.189 28.0001) scale(-1)" fill="#F5A623" fill-opacity="0.5"/>
</g>
<g id="Rectangle 2.10_3">
<rect width="2" height="6" rx="1" transform="matrix(-0.438371 -0.898794 0.898794 -0.438371 243.877 20.3976)" fill="#F5A623" fill-opacity="0.5"/>
</g>
<g id="Rectangle 2.6_3">
<rect width="2" height="6" rx="1" transform="matrix(0.829038 -0.559193 0.559193 0.829038 247.208 4.82532)" fill="#F5A623" fill-opacity="0.5"/>
</g>
</g>
</g>
<g id="10">
<g id="Icons / 24px / Star_6" clip-path="url(#clip6)">
<g id="Vector_9">
<path fill-rule="evenodd" clip-rule="evenodd" d="M 14.5207 17.7286C 14.2817 17.9097 14.0005 18 13.7208 18C 13.4397 18 13.1583 17.9097 12.9209 17.7286L 8.99928 14.7553L 5.07764 17.7286C 4.84023 17.9097 4.55889 18 4.27773 18C 3.99801 18 3.71685 17.9097 3.47781 17.7286C 3.00136 17.3677 2.8012 16.7261 2.98408 16.1418L 4.48239 11.3321L 0.560752 8.35854C 0.0842954 7.99664 -0.115863 7.35603 0.0670156 6.77176C 0.248274 6.18637 0.771711 5.79028 1.36067 5.79028L 6.20732 5.79028L 7.70563 0.981292C 7.88689 0.396085 8.41032 0 8.99928 0C 9.58824 0 10.1101 0.396085 10.2929 0.981292L 11.7912 5.79103L 16.6392 5.79103C 17.2283 5.79103 17.7501 6.18731 17.933 6.77251C 18.1159 7.35697 17.9157 7.99833 17.4392 8.35948L 13.5162 11.3321L 15.0145 16.1418C 15.1972 16.7261 14.9972 17.3667 14.5207 17.7286Z" transform="translate(276 5)" fill="#F5A623"/>
</g>
</g>
<g id="Group 2.3">
<g id="Rectangle 2.1">
<rect width="2" height="8" rx="1" transform="matrix(0.829038 0.559193 -0.559193 0.829038 292.547 1.95581)" fill="#F5A623" fill-opacity="0.5"/>
</g>
<g id="Rectangle 2.2">
<rect width="2" height="8" rx="1" transform="matrix(-0.438371 0.898794 -0.898794 -0.438371 299.017 19.6456)" fill="#F5A623" fill-opacity="0.5"/>
</g>
<g id="Rectangle 2.3">
<rect width="2" height="8" rx="1" transform="translate(285.992 30) scale(-1)" fill="#F5A623" fill-opacity="0.5"/>
</g>
<g id="Rectangle 2.4">
<rect width="2" height="8" rx="1" transform="matrix(-0.438371 -0.898794 0.898794 -0.438371 271.877 21.2749)" fill="#F5A623" fill-opacity="0.5"/>
</g>
<g id="Rectangle 2.5">
<rect width="2" height="8" rx="1" transform="matrix(0.829038 -0.559193 0.559193 0.829038 275.894 3.16516)" fill="#F5A623" fill-opacity="0.5"/>
</g>
</g>
</g>
<g id="11">
<g id="Icons / 24px / Star_7" clip-path="url(#clip7)">
<g id="Vector_10">
<path fill-rule="evenodd" clip-rule="evenodd" d="M 14.5207 17.7286C 14.2817 17.9097 14.0005 18 13.7208 18C 13.4397 18 13.1583 17.9097 12.9209 17.7286L 8.99928 14.7553L 5.07764 17.7286C 4.84023 17.9097 4.55889 18 4.27773 18C 3.99801 18 3.71685 17.9097 3.47781 17.7286C 3.00136 17.3677 2.8012 16.7261 2.98408 16.1418L 4.48239 11.3321L 0.560752 8.35854C 0.0842954 7.99664 -0.115863 7.35603 0.0670156 6.77176C 0.248274 6.18637 0.771711 5.79028 1.36067 5.79028L 6.20732 5.79028L 7.70563 0.981292C 7.88689 0.396085 8.41032 0 8.99928 0C 9.58824 0 10.1101 0.396085 10.2929 0.981292L 11.7912 5.79103L 16.6392 5.79103C 17.2283 5.79103 17.7501 6.18731 17.933 6.77251C 18.1159 7.35697 17.9157 7.99833 17.4392 8.35948L 13.5162 11.3321L 15.0145 16.1418C 15.1972 16.7261 14.9972 17.3667 14.5207 17.7286Z" transform="translate(306 5)" fill="#F5A623"/>
</g>
</g>
<g id="Group 2.4">
<g id="Rectangle 2.1_2">
<rect width="2" height="8" rx="1" transform="matrix(0.829038 0.559193 -0.559193 0.829038 322.547 1.95581)" fill="#F5A623" fill-opacity="0.5"/>
</g>
<g id="Rectangle 2.2_2">
<rect width="2" height="8" rx="1" transform="matrix(-0.438371 0.898794 -0.898794 -0.438371 329.017 19.6456)" fill="#F5A623" fill-opacity="0.5"/>
</g>
<g id="Rectangle 2.3_2">
<rect width="2" height="8" rx="1" transform="translate(315.992 30) scale(-1)" fill="#F5A623" fill-opacity="0.5"/>
</g>
<g id="Rectangle 2.4_2">
<rect width="2" height="8" rx="1" transform="matrix(-0.438371 -0.898794 0.898794 -0.438371 301.877 21.2749)" fill="#F5A623" fill-opacity="0.5"/>
</g>
<g id="Rectangle 2.5_2">
<rect width="2" height="8" rx="1" transform="matrix(0.829038 -0.559193 0.559193 0.829038 305.894 3.16516)" fill="#F5A623" fill-opacity="0.5"/>
</g>
</g>
</g>
<g id="12">
<g id="Icons / 24px / Star_8" clip-path="url(#clip8)">
<g id="Vector_11">
<path fill-rule="evenodd" clip-rule="evenodd" d="M 14.5207 17.7286C 14.2817 17.9097 14.0005 18 13.7208 18C 13.4397 18 13.1583 17.9097 12.9209 17.7286L 8.99928 14.7553L 5.07764 17.7286C 4.84023 17.9097 4.55889 18 4.27773 18C 3.99801 18 3.71685 17.9097 3.47781 17.7286C 3.00136 17.3677 2.8012 16.7261 2.98408 16.1418L 4.48239 11.3321L 0.560752 8.35854C 0.0842954 7.99664 -0.115863 7.35603 0.0670156 6.77176C 0.248274 6.18637 0.771711 5.79028 1.36067 5.79028L 6.20732 5.79028L 7.70563 0.981292C 7.88689 0.396085 8.41032 0 8.99928 0C 9.58824 0 10.1101 0.396085 10.2929 0.981292L 11.7912 5.79103L 16.6392 5.79103C 17.2283 5.79103 17.7501 6.18731 17.933 6.77251C 18.1159 7.35697 17.9157 7.99833 17.4392 8.35948L 13.5162 11.3321L 15.0145 16.1418C 15.1972 16.7261 14.9972 17.3667 14.5207 17.7286Z" transform="translate(336 5)" fill="#F5A623"/>
</g>
</g>
<g id="Group 2.5">
<g id="Rectangle 2.1_3">
<rect width="2" height="8" rx="1" transform="matrix(0.829038 0.559193 -0.559193 0.829038 352.547 1.95581)" fill="#F5A623" fill-opacity="0.5"/>
</g>
<g id="Rectangle 2.2_3">
<rect width="2" height="8" rx="1" transform="matrix(-0.438371 0.898794 -0.898794 -0.438371 359.017 19.6456)" fill="#F5A623" fill-opacity="0.5"/>
</g>
<g id="Rectangle 2.3_3">
<rect width="2" height="8" rx="1" transform="translate(345.992 30) scale(-1)" fill="#F5A623" fill-opacity="0.5"/>
</g>
<g id="Rectangle 2.4_3">
<rect width="2" height="8" rx="1" transform="matrix(-0.438371 -0.898794 0.898794 -0.438371 331.877 21.2749)" fill="#F5A623" fill-opacity="0.5"/>
</g>
<g id="Rectangle 2.5_3">
<rect width="2" height="8" rx="1" transform="matrix(0.829038 -0.559193 0.559193 0.829038 335.894 3.16516)" fill="#F5A623" fill-opacity="0.5"/>
</g>
</g>
</g>
<g id="13">
<g id="Icons / 24px / Star_9" clip-path="url(#clip9)">
<g id="Vector_12">
<path fill-rule="evenodd" clip-rule="evenodd" d="M 14.5207 17.7286C 14.2817 17.9097 14.0005 18 13.7208 18C 13.4397 18 13.1583 17.9097 12.9209 17.7286L 8.99928 14.7553L 5.07764 17.7286C 4.84023 17.9097 4.55889 18 4.27773 18C 3.99801 18 3.71685 17.9097 3.47781 17.7286C 3.00136 17.3677 2.8012 16.7261 2.98408 16.1418L 4.48239 11.3321L 0.560752 8.35854C 0.0842954 7.99664 -0.115863 7.35603 0.0670156 6.77176C 0.248274 6.18637 0.771711 5.79028 1.36067 5.79028L 6.20732 5.79028L 7.70563 0.981292C 7.88689 0.396085 8.41032 0 8.99928 0C 9.58824 0 10.1101 0.396085 10.2929 0.981292L 11.7912 5.79103L 16.6392 5.79103C 17.2283 5.79103 17.7501 6.18731 17.933 6.77251C 18.1159 7.35697 17.9157 7.99833 17.4392 8.35948L 13.5162 11.3321L 15.0145 16.1418C 15.1972 16.7261 14.9972 17.3667 14.5207 17.7286Z" transform="translate(366 5)" fill="#F5A623"/>
</g>
</g>
<g id="Group 2.6">
<g id="Rectangle 2.1_4">
<rect width="2" height="6" rx="1" transform="matrix(0.829038 0.559193 -0.559193 0.829038 382.547 1.95581)" fill="#F5A623" fill-opacity="0.5"/>
</g>
<g id="Rectangle 2.2_4">
<rect width="2" height="6" rx="1" transform="matrix(-0.438371 0.898794 -0.898794 -0.438371 389.017 19.6456)" fill="#F5A623" fill-opacity="0.5"/>
</g>
<g id="Rectangle 2.3_4">
<rect width="2" height="6" rx="1" transform="translate(375.992 30) scale(-1)" fill="#F5A623" fill-opacity="0.5"/>
</g>
<g id="Rectangle 2.4_4">
<rect width="2" height="6" rx="1" transform="matrix(-0.438371 -0.898794 0.898794 -0.438371 361.877 21.2749)" fill="#F5A623" fill-opacity="0.5"/>
</g>
<g id="Rectangle 2.5_4">
<rect width="2" height="6" rx="1" transform="matrix(0.829038 -0.559193 0.559193 0.829038 365.894 3.16516)" fill="#F5A623" fill-opacity="0.5"/>
</g>
</g>
</g>
<g id="14">
<g id="Icons / 24px / Star_10" clip-path="url(#clip10)">
<g id="Vector_13">
<path fill-rule="evenodd" clip-rule="evenodd" d="M 14.5207 17.7286C 14.2817 17.9097 14.0005 18 13.7208 18C 13.4397 18 13.1583 17.9097 12.9209 17.7286L 8.99928 14.7553L 5.07764 17.7286C 4.84023 17.9097 4.55889 18 4.27773 18C 3.99801 18 3.71685 17.9097 3.47781 17.7286C 3.00136 17.3677 2.8012 16.7261 2.98408 16.1418L 4.48239 11.3321L 0.560752 8.35854C 0.0842954 7.99664 -0.115863 7.35603 0.0670156 6.77176C 0.248274 6.18637 0.771711 5.79028 1.36067 5.79028L 6.20732 5.79028L 7.70563 0.981292C 7.88689 0.396085 8.41032 0 8.99928 0C 9.58824 0 10.1101 0.396085 10.2929 0.981292L 11.7912 5.79103L 16.6392 5.79103C 17.2283 5.79103 17.7501 6.18731 17.933 6.77251C 18.1159 7.35697 17.9157 7.99833 17.4392 8.35948L 13.5162 11.3321L 15.0145 16.1418C 15.1972 16.7261 14.9972 17.3667 14.5207 17.7286Z" transform="translate(396 5)" fill="#F5A623"/>
</g>
</g>
<g id="Group 2.7">
<g id="Rectangle 2.1_5">
<rect width="2" height="4" rx="1" transform="matrix(0.829038 0.559193 -0.559193 0.829038 412.547 1.95581)" fill="#F5A623" fill-opacity="0.5"/>
</g>
<g id="Rectangle 2.2_5">
<rect width="2" height="4" rx="1" transform="matrix(-0.438371 0.898794 -0.898794 -0.438371 419.017 19.6456)" fill="#F5A623" fill-opacity="0.5"/>
</g>
<g id="Rectangle 2.3_5">
<rect width="2" height="4" rx="1" transform="translate(405.992 30) scale(-1)" fill="#F5A623" fill-opacity="0.5"/>
</g>
<g id="Rectangle 2.4_5">
<rect width="2" height="4" rx="1" transform="matrix(-0.438371 -0.898794 0.898794 -0.438371 391.877 21.2749)" fill="#F5A623" fill-opacity="0.5"/>
</g>
<g id="Rectangle 2.5_5">
<rect width="2" height="4" rx="1" transform="matrix(0.829038 -0.559193 0.559193 0.829038 395.894 3.16516)" fill="#F5A623" fill-opacity="0.5"/>
</g>
</g>
</g>
<g id="15">
<g id="Icons / 24px / Star_11" clip-path="url(#clip11)">
<g id="Vector_14">
<path fill-rule="evenodd" clip-rule="evenodd" d="M 14.5207 17.7286C 14.2817 17.9097 14.0005 18 13.7208 18C 13.4397 18 13.1583 17.9097 12.9209 17.7286L 8.99928 14.7553L 5.07764 17.7286C 4.84023 17.9097 4.55889 18 4.27773 18C 3.99801 18 3.71685 17.9097 3.47781 17.7286C 3.00136 17.3677 2.8012 16.7261 2.98408 16.1418L 4.48239 11.3321L 0.560752 8.35854C 0.0842954 7.99664 -0.115863 7.35603 0.0670156 6.77176C 0.248274 6.18637 0.771711 5.79028 1.36067 5.79028L 6.20732 5.79028L 7.70563 0.981292C 7.88689 0.396085 8.41032 0 8.99928 0C 9.58824 0 10.1101 0.396085 10.2929 0.981292L 11.7912 5.79103L 16.6392 5.79103C 17.2283 5.79103 17.7501 6.18731 17.933 6.77251C 18.1159 7.35697 17.9157 7.99833 17.4392 8.35948L 13.5162 11.3321L 15.0145 16.1418C 15.1972 16.7261 14.9972 17.3667 14.5207 17.7286Z" transform="translate(426 5)" fill="#F5A623"/>
</g>
</g>
<g id="Group 2.8">
<g id="Rectangle 2.1_6">
<rect width="2" height="2" rx="1" transform="matrix(0.829038 0.559193 -0.559193 0.829038 442.547 1.95581)" fill="#F5A623" fill-opacity="0.5"/>
</g>
<g id="Rectangle 2.2_6">
<rect width="2" height="2" rx="1" transform="matrix(-0.438371 0.898794 -0.898794 -0.438371 449.017 19.6456)" fill="#F5A623" fill-opacity="0.5"/>
</g>
<g id="Rectangle 2.3_6">
<rect width="2" height="2" rx="1" transform="translate(435.992 30) scale(-1)" fill="#F5A623" fill-opacity="0.5"/>
</g>
<g id="Rectangle 2.4_6">
<rect width="2" height="2" rx="1" transform="matrix(-0.438371 -0.898794 0.898794 -0.438371 421.877 21.2749)" fill="#F5A623" fill-opacity="0.5"/>
</g>
<g id="Rectangle 2.5_6">
<rect width="2" height="2" rx="1" transform="matrix(0.829038 -0.559193 0.559193 0.829038 425.894 3.16516)" fill="#F5A623" fill-opacity="0.5"/>
</g>
</g>
</g>
<g id="16">
<g id="Icons / 24px / Star_12" clip-path="url(#clip12)">
<g id="Vector_15">
<path fill-rule="evenodd" clip-rule="evenodd" d="M 14.5207 17.7286C 14.2817 17.9097 14.0005 18 13.7208 18C 13.4397 18 13.1583 17.9097 12.9209 17.7286L 8.99928 14.7553L 5.07764 17.7286C 4.84023 17.9097 4.55889 18 4.27773 18C 3.99801 18 3.71685 17.9097 3.47781 17.7286C 3.00136 17.3677 2.8012 16.7261 2.98408 16.1418L 4.48239 11.3321L 0.560752 8.35854C 0.0842954 7.99664 -0.115863 7.35603 0.0670156 6.77176C 0.248274 6.18637 0.771711 5.79028 1.36067 5.79028L 6.20732 5.79028L 7.70563 0.981292C 7.88689 0.396085 8.41032 0 8.99928 0C 9.58824 0 10.1101 0.396085 10.2929 0.981292L 11.7912 5.79103L 16.6392 5.79103C 17.2283 5.79103 17.7501 6.18731 17.933 6.77251C 18.1159 7.35697 17.9157 7.99833 17.4392 8.35948L 13.5162 11.3321L 15.0145 16.1418C 15.1972 16.7261 14.9972 17.3667 14.5207 17.7286Z" transform="translate(456 5)" fill="#F5A623"/>
</g>
</g>
</g>
</g>
</g>
<defs>

<clipPath id="clip0">
<rect width="480" height="30" fill="white"/>
</clipPath>
<clipPath id="clip1">
<rect width="30" height="30" fill="white" transform="translate(120 -1)"/>
</clipPath>
<clipPath id="clip2">
<rect width="30" height="30" fill="white" transform="translate(150 -1)"/>
</clipPath>
<clipPath id="clip3">
<rect width="28" height="28" fill="white" transform="translate(181 0)"/>
</clipPath>
<clipPath id="clip4">
<rect width="26" height="26" fill="white" transform="translate(212 1)"/>
</clipPath>
<clipPath id="clip5">
<rect width="24" height="24" fill="white" transform="translate(243.193 2)"/>
</clipPath>
<clipPath id="clip6">
<rect width="24" height="24" fill="white" transform="translate(273 2)"/>
</clipPath>
<clipPath id="clip7">
<rect width="24" height="24" fill="white" transform="translate(303 2)"/>
</clipPath>
<clipPath id="clip8">
<rect width="24" height="24" fill="white" transform="translate(333 2)"/>
</clipPath>
<clipPath id="clip9">
<rect width="24" height="24" fill="white" transform="translate(363 2)"/>
</clipPath>
<clipPath id="clip10">
<rect width="24" height="24" fill="white" transform="translate(393 2)"/>
</clipPath>
<clipPath id="clip11">
<rect width="24" height="24" fill="white" transform="translate(423 2)"/>
</clipPath>
<clipPath id="clip12">
<rect width="24" height="24" fill="white" transform="translate(453 2)"/>
</clipPath>

</defs>
</svg>

