<svg width="24" height="24" viewBox="0 0 24 24" version="1.1" xmlns="http://www.w3.org/2000/svg" xmlns:xlink="http://www.w3.org/1999/xlink">
<g data-name="Canvas" fill="none">
<g data-name="Icons / 24px / Star" clip-path="url(#clip0)">
<g data-name="Vector">
<path fill-rule="evenodd" clip-rule="evenodd" d="M 13.5251 16.9318L 13.5273 16.9334C 13.5872 16.9791 13.6547 17 13.7208 17C 13.7841 17 13.8527 16.98 13.9164 16.9319C 14.0478 16.8317 14.1204 16.6333 14.0601 16.4403L 14.0597 16.4393L 12.5614 11.6295L 12.3526 10.9591L 12.9122 10.5351L 16.8352 7.56255C 16.8352 7.56252 16.8353 7.56248 16.8353 7.56245C 16.9658 7.46347 17.0392 7.26488 16.9786 7.07114L 16.9785 7.07079C 16.9185 6.87885 16.7661 6.79103 16.6392 6.79103L 11.7912 6.79103L 11.0554 6.79103L 10.8365 6.08845L 9.33845 1.27957C 9.3384 1.27941 9.33835 1.27924 9.3383 1.27908C 9.27825 1.08762 9.12604 1 8.99928 1C 8.87062 1 8.71906 1.08926 8.66086 1.27716L 8.66036 1.27875L 7.16205 6.08774L 6.94317 6.79028L 6.20732 6.79028L 1.36067 6.79028C 1.23208 6.79028 1.08051 6.87947 1.02227 7.06754L 1.02136 7.07048C 0.961018 7.26325 1.0336 7.46175 1.16536 7.56202C 1.16545 7.56209 1.16553 7.56215 1.16562 7.56222L 5.08658 10.5353L 5.6459 10.9594L 5.43714 11.6295L 3.93882 16.4393L 3.93842 16.4405C 3.87783 16.6341 3.95138 16.8327 4.08158 16.9315M 8.99928 13.5003L 9.60345 13.9584L 13.5251 16.9318M 8.99928 13.5003L 8.39511 13.9584ZM 4.47127 16.9334L 4.47347 16.9318L 8.39511 13.9584M 4.47127 16.9334C 4.41133 16.9791 4.3439 17 4.27773 17ZM 4.27773 17C 4.2143 17 4.14555 16.9799 4.08169 16.9315Z" stroke-width="2" stroke-miterlimit="8" transform="translate(3 3)" stroke="#343A3C"/>
</g>
</g>
</g>
<defs>

<clipPath id="clip0">
<rect width="24" height="24" fill="white"/>
</clipPath>

</defs>
</svg>

